PathFileType	4	(X/Y/Z)	/Users/itak/Documents/Research/Walk-IL/dataset/trc/00527_00183.trc
DataRate	CameraRate	NumFrames	NumMarkers	Units	OrigDataRate	OrigDataStartFrame	OrigNumFrames
100.000000	100.000000	4	53	mm	100.000000	298	477
Frame#	Time	RPSI			LPSI			L3			STRN			T10			C7			CLAV			RBAK			LBAK			LSHO			LUPA			LAEL			LAOL			LWTS			LWPS			LFRA			LIFD			LHPS			LHTS			RSHO			RUPA			RAEL			RAOL			RWTS			RWPS			RFRA			RIFD			RHTS			RHPS			RBHD			LFHD			RFHD			LBHD			LHIP			RHIP			RASI			LASI			LKNE			LTHI			LANK			LTIP			LTOE			LMT1			LMT5			LHEE			RKNE			RTHI			RANK			RTIP			RTOE			RMT1			RMT5			RHEE			
		X1	Y1	Z1	X2	Y2	Z2	X3	Y3	Z3	X4	Y4	Z4	X5	Y5	Z5	X6	Y6	Z6	X7	Y7	Z7	X8	Y8	Z8	X9	Y9	Z9	X10	Y10	Z10	X11	Y11	Z11	X12	Y12	Z12	X13	Y13	Z13	X14	Y14	Z14	X15	Y15	Z15	X16	Y16	Z16	X17	Y17	Z17	X18	Y18	Z18	X19	Y19	Z19	X20	Y20	Z20	X21	Y21	Z21	X22	Y22	Z22	X23	Y23	Z23	X24	Y24	Z24	X25	Y25	Z25	X26	Y26	Z26	X27	Y27	Z27	X28	Y28	Z28	X29	Y29	Z29	X30	Y30	Z30	X31	Y31	Z31	X32	Y32	Z32	X33	Y33	Z33	X34	Y34	Z34	X35	Y35	Z35	X36	Y36	Z36	X37	Y37	Z37	X38	Y38	Z38	X39	Y39	Z39	X40	Y40	Z40	X41	Y41	Z41	X42	Y42	Z42	X43	Y43	Z43	X44	Y44	Z44	X45	Y45	Z45	X46	Y46	Z46	X47	Y47	Z47	X48	Y48	Z48	X49	Y49	Z49	X50	Y50	Z50	X51	Y51	Z51	X52	Y52	Z52	X53	Y53	Z53	

299	2.98	-131.4628448486328	924.1231079101562	92.06090545654297	-67.28894805908203	929.3519287109375	-13.28458690643311	-97.90756225585938	1005.322937011719	30.04610824584961	98.73352813720703	1165.881103515625	136.8105926513672	-110.3014221191406	1110.722412109375	25.80359840393066	-69.95686340332031	1340.295654296875	57.03636932373047	66.71891021728516	1261.19677734375	123.7953720092773	-154.4093170166016	1218.291381835938	105.0675506591797	-52.08889007568359	1289.241088867188	-33.96327590942383	65.12908935546875	1338.620239257812	-53.33034515380859	92.91365814208984	1215.731567382812	-115.426155090332	144.4857177734375	1010.933471679688	-134.7803192138672	49.72583389282227	988.2019653320312	-116.2436981201172	229.0731048583984	840.2720947265625	-50.68849182128906	193.4903259277344	796.1480712890625	-125.8855285644531	171.9147186279297	932.2172241210938	-124.1399078369141	258.1510009765625	685.8726806640625	-39.63115692138672	222.2803344726562	747.3286743164062	-108.2841033935547	262.4488220214844	767.8323364257812	-61.69253540039062	-90.3553466796875	1329.767700195312	213.0892791748047	-136.1654815673828	1262.838623046875	249.7179565429688	-186.7531280517578	998.5223388671875	264.6818542480469	-203.5703277587891	989.142578125	200.9410858154297	-111.5153656005859	787.4940185546875	294.8334045410156	-199.5405883789062	774.8594970703125	272.86962890625	-193.7197570800781	944.85302734375	269.5152893066406	-127.8779144287109	627.9691772460938	286.0830078125	-127.3105010986328	692.9560546875	315.215576171875	-190.4692077636719	699.2744750976562	283.4728393554688	-71.47322082519531	1488.138061523438	163.466552734375	107.5174407958984	1554.723999023438	104.0605163574219	45.05895233154297	1541.950439453125	214.0819702148438	-4.711876392364502	1501.408935546875	18.08148956298828	90.17288970947266	859.76171875	-75.85081481933594	-92.91034698486328	833.8948364257812	257.3380126953125	21.65897560119629	885.4324340820312	243.2423858642578	137.5803985595703	893.3233032226562	30.58993148803711	4.04959774017334	445.2096557617188	-40.82388687133789	63.98635482788086	595.701171875	-46.57355117797852	-198.9613342285156	59.83898162841797	-101.8539657592773	-62.7193489074707	304.40380859375	-64.88990783691406	-52.70306015014648	34.19407653808594	40.54394912719727	-136.2926330566406	42.63313293457031	34.44562911987305	-99.60394287109375	40.73788070678711	-61.28755569458008	-268.1553039550781	67.46083068847656	-67.86673736572266	54.15957260131836	474.6027526855469	294.8621826171875	-46.80021667480469	714.9702758789062	287.1356811523438	166.5141906738281	45.98959732055664	327.7378845214844	114.1250839233398	345.2115783691406	317.395263671875	335.9751586914062	120.8831253051758	400.5335998535156	311.4219360351562	98.91944122314453	333.4559020996094	242.5854339599609	78.72227478027344	401.8341369628906	156.6653594970703	25.96829795837402	260.4922485351562	
300	2.99	-122.4287185668945	923.2609252929688	98.41474151611328	-58.65816879272461	928.2350463867188	-7.090480804443359	-89.28075408935547	1003.988220214844	35.98757934570312	107.1820602416992	1165.027221679688	142.2195434570312	-101.936393737793	1109.3427734375	31.33687591552734	-61.98453140258789	1339.051147460938	62.21114349365234	74.99878692626953	1260.291381835938	129.0314178466797	-146.1405029296875	1216.9501953125	110.4682312011719	-44.07693099975586	1287.847412109375	-28.68342018127441	73.05467987060547	1337.429077148438	-48.24458312988281	100.9099044799805	1214.408447265625	-110.1101913452148	152.4600372314453	1009.535949707031	-128.9333648681641	57.56430435180664	986.8189086914062	-110.5022430419922	236.5934295654297	838.8597412109375	-44.35209655761719	201.2001037597656	794.6541748046875	-119.6106643676758	179.8279724121094	930.7537231445312	-118.1144638061523	265.18994140625	684.3683471679688	-32.86445236206055	229.7868957519531	745.7928466796875	-101.7564849853516	269.8084106445312	766.2659912109375	-55.05963897705078	-82.31082153320312	1328.701904296875	218.2923736572266	-128.0381774902344	1261.713623046875	254.9158630371094	-178.6194915771484	997.4026489257812	269.2468872070312	-195.1163024902344	988.1642456054688	205.4810333251953	-104.3822326660156	785.93310546875	299.20654296875	-192.4474639892578	773.8992309570312	276.7869567871094	-185.746826171875	943.764404296875	273.9370422363281	-121.5055389404297	626.5055541992188	289.6105346679688	-120.7769393920898	691.35302734375	319.0494079589844	-183.7192687988281	698.1531982421875	286.9540710449219	-63.69618606567383	1487.029663085938	168.56787109375	115.2895889282227	1553.801879882812	109.3567581176758	52.74625015258789	1540.882690429688	219.3236541748047	3.168634176254272	1500.466552734375	23.25518417358398	98.42201995849609	858.3819580078125	-70.23139190673828	-83.65023040771484	833.118408203125	263.6641235351562	31.08333206176758	884.4488525390625	249.0974884033203	146.4363555908203	892.0036010742188	35.97564697265625	10.16533279418945	444.3860473632812	-35.61228561401367	71.35096740722656	594.49609375	-41.07278823852539	-198.2621765136719	62.43486404418945	-101.4774551391602	-58.11238861083984	304.5217895507812	-61.30535888671875	-52.65376663208008	34.09836578369141	40.66976928710938	-135.8609924316406	43.13740158081055	34.75107955932617	-99.28810882568359	41.17870712280273	-60.99929046630859	-267.2540588378906	71.10929870605469	-67.37933349609375	63.99082946777344	473.85009765625	299.9898986816406	-37.05929183959961	714.1817016601562	293.4917602539062	173.9884643554688	44.94845962524414	330.1847534179688	123.6627197265625	343.925537109375	321.1240844726562	345.288330078125	117.3203582763672	401.0524597167969	319.5190734863281	95.88144683837891	334.25244140625	251.4090423583984	76.38274383544922	403.4247131347656	163.1932525634766	25.29403305053711	262.9936828613281	
301	3	-113.2727508544922	922.679931640625	104.9426574707031	-49.84220886230469	927.3557739257812	-0.7183880805969238	-80.47869873046875	1002.828186035156	42.09069442749023	115.6921005249023	1164.395751953125	147.81689453125	-93.48189544677734	1108.110961914062	37.01196670532227	-53.96755981445312	1337.987182617188	67.48575592041016	83.321044921875	1259.598510742188	134.4315185546875	-137.8222045898438	1215.762084960938	115.9619674682617	-35.97903823852539	1286.622314453125	-23.28970718383789	81.05902862548828	1336.408203125	-43.01778030395508	108.9292144775391	1213.246337890625	-104.6722030639648	160.3240814208984	1008.273559570312	-123.0596542358398	65.33231353759766	985.6452026367188	-104.6526260375977	243.9258117675781	837.4955444335938	-38.08412170410156	208.6716003417969	793.2669677734375	-113.4113540649414	187.5867462158203	929.4033813476562	-112.103157043457	271.9164123535156	682.8828735351562	-26.21867561340332	237.0154571533203	744.3331298828125	-95.33226776123047	276.9228820800781	764.73193359375	-48.51927185058594	-74.27138519287109	1327.830444335938	223.6020355224609	-119.9181671142578	1260.76904296875	260.2049560546875	-170.3945007324219	996.4569702148438	273.9100952148438	-186.4580993652344	987.3366088867188	210.1044464111328	-97.11803436279297	784.555419921875	303.7530822753906	-185.2000122070312	773.0614624023438	280.836669921875	-177.6500854492188	942.841064453125	278.4432678222656	-114.9186248779297	625.2286987304688	293.3023071289062	-114.0839996337891	689.93408203125	323.037353515625	-176.7833251953125	697.200439453125	290.5504150390625	-55.90753173828125	1486.160400390625	173.7255401611328	123.0794448852539	1553.094482421875	114.6528167724609	60.44433212280273	1540.057373046875	224.5791473388672	11.05527210235596	1499.723754882812	28.45833396911621	106.8417816162109	857.1647338867188	-64.4217529296875	-74.26477813720703	832.5485229492188	270.1260375976562	40.64090728759766	883.68798828125	255.1175231933594	155.4730529785156	890.8615112304688	41.55043029785156	16.67310905456543	443.6450500488281	-30.0209903717041	79.03166198730469	593.405029296875	-35.27184677124023	-197.3126831054688	65.44181823730469	-101.1068420410156	-53.09502792358398	304.8043823242188	-57.5096435546875	-52.61664962768555	34.03010177612305	40.77572250366211	-135.3416442871094	43.75944519042969	35.03939056396484	-98.83845520019531	41.6921272277832	-60.73918914794922	-266.0708618164062	75.27642059326172	-66.90786743164062	73.94495391845703	473.3199462890625	304.8151550292969	-27.1023998260498	713.5611572265625	299.8647155761719	179.8855895996094	43.92325592041016	331.8565368652344	132.9434051513672	342.6166076660156	324.5765380859375	353.4436340332031	112.5195922851562	400.6326599121094	326.3298645019531	91.83110809326172	334.169189453125	258.9183654785156	73.40091705322266	404.1395263671875	168.0473480224609	24.78754615783691	264.6934509277344	
302	3.01	-103.9944000244141	922.417724609375	111.6073684692383	-40.83353805541992	926.7376708984375	5.806093692779541	-71.49974060058594	1001.87060546875	48.34443283081055	124.2580261230469	1164.009033203125	153.5960083007812	-84.93782806396484	1107.053833007812	42.81440734863281	-45.908935546875	1337.13232421875	72.86089324951172	91.68476104736328	1259.138549804688	139.9929504394531	-129.4489288330078	1214.747802734375	121.5441207885742	-27.79605293273926	1285.598388671875	-17.78593444824219	89.14451599121094	1335.584716796875	-37.65487670898438	116.9711761474609	1212.266723632812	-99.1171875	168.0757446289062	1007.165466308594	-117.1645050048828	73.05009460449219	984.714111328125	-98.6934814453125	251.0738220214844	836.2005615234375	-31.90317153930664	215.8952331542969	792.0039672851562	-107.2961044311523	195.1830444335938	928.17919921875	-106.1195602416992	278.3554077148438	681.4459228515625	-19.72034072875977	243.9593811035156	742.9698486328125	-89.03057861328125	283.8016357421875	763.256103515625	-42.09864807128906	-66.23763275146484	1327.171752929688	229.0187530517578	-111.8029327392578	1260.019287109375	265.5865783691406	-162.0831604003906	995.7012939453125	278.6917724609375	-177.619384765625	986.6758422851562	214.8275756835938	-89.71267700195312	783.3859252929688	308.4803466796875	-177.7707214355469	772.3500366210938	285.0125732421875	-169.4284057617188	942.0980834960938	283.0444030761719	-108.0991897583008	624.1602783203125	297.1690063476562	-107.2078399658203	688.7237548828125	327.1871643066406	-169.6461791992188	696.4308471679688	294.2812194824219	-48.10123825073242	1485.560180664062	178.9425659179688	130.8909912109375	1552.625122070312	119.9431991577148	68.16107940673828	1539.508178710938	229.843505859375	18.94411087036133	1499.194702148438	33.69245910644531	115.4593734741211	856.121826171875	-58.4150390625	-64.73776245117188	832.2527465820312	276.7198791503906	50.30416488647461	883.2017211914062	261.2918701171875	164.6889343261719	889.9209594726562	47.32853317260742	23.68542098999023	442.9720764160156	-24.03605461120605	87.09013366699219	592.44140625	-29.16130828857422	-196.0464477539062	68.89093780517578	-100.7334518432617	-47.58671951293945	305.2610168457031	-53.48691558837891	-52.59661483764648	33.99391174316406	40.85906600952148	-134.7084655761719	44.51522445678711	35.31875610351562	-98.22768402099609	42.27997207641602	-60.52165222167969	-264.5237426757812	80.02394866943359	-66.43138122558594	83.94474029541016	473.0448303222656	309.3444213867188	-16.96332550048828	713.1635131835938	306.1971435546875	184.4461975097656	43.07370758056641	332.9696960449219	142.004150390625	341.3934936523438	327.8236083984375	360.6523132324219	106.7256240844727	399.4526672363281	332.0858764648438	87.00408172607422	333.394775390625	265.3320922851562	70.00259399414062	404.1434326171875	171.5106353759766	24.56287956237793	265.8005676269531	
